<svg width="300" height="300" viewBox="0 0 484 320" fill="none" xmlns="http://www.w3.org/2000/svg">
<path d="M263.041 24.5996C291.841 24.5996 299.941 50.3996 299.941 87.2996C299.941 124.2 291.841 150 263.041 150C234.241 150 226.141 124.2 226.141 87.2996C226.141 50.3996 234.241 24.5996 263.041 24.5996ZM263.041 0.599609C217.141 0.599609 196.441 33.5996 196.441 87.2996C196.441 141 217.141 174 263.041 174C308.941 174 329.641 141 329.641 87.2996C329.641 33.5996 308.941 0.599609 263.041 0.599609Z" fill="#246CF0"/>
<path d="M433.277 3.59961L351.077 116.4V135.6H431.177V171H459.677V135.6H483.677V113.1H459.677V3.59961H433.277ZM378.977 113.1L431.177 41.9996V113.1H378.977Z" fill="#246CF0"/>
<path d="M7.9568 270.854L138.8 319.442L157.283 314.243L135.595 237.135L169.673 227.55L161.956 200.115L127.878 209.7L121.38 186.596L99.7204 192.688L106.219 215.792L0.808766 245.44L7.9568 270.854ZM128.069 293.477L45.4911 262.478L113.935 243.227L128.069 293.477Z" fill="#246CF0"/>
<path d="M207.36 254.165H210.79V247.165L209.495 240.62H208.655L207.36 247.165V254.165ZM207.15 238.485H211V234.635H207.15V238.485ZM217.511 254.165H220.941V247.165L219.646 240.62H218.806L217.511 247.165V254.165ZM217.301 238.485H221.151V234.635H217.301V238.485ZM226.893 242.895C226.893 248.11 229.868 250.35 234.803 250.35C239.738 250.35 242.713 248.11 242.713 242.895V230.47H239.248V242.44C239.248 246.045 237.813 247.34 234.803 247.34C231.793 247.34 230.358 246.045 230.358 242.44V230.47H226.893V242.895ZM248.229 250H251.694V243.14H254.634C259.849 243.14 262.929 241.11 262.929 236.805C262.929 232.5 259.849 230.47 254.634 230.47H248.229V250ZM251.694 240.27V233.34H254.564C258.099 233.34 259.324 234.46 259.324 236.805C259.324 239.185 258.099 240.27 254.564 240.27H251.694ZM265.906 244.155C266.186 248.25 269.371 250.35 273.886 250.35C277.736 250.35 281.411 248.81 281.411 244.61C281.411 241.705 279.626 240.13 276.616 239.29L272.521 238.135C270.631 237.61 269.826 236.735 269.826 235.405C269.826 233.83 270.981 232.885 273.186 232.885C275.146 232.885 277.141 233.62 277.316 236.21H280.816C280.536 232.185 277.596 230.12 273.431 230.12C269.721 230.12 266.361 231.73 266.361 235.65C266.361 238.345 267.971 240.095 271.121 240.97L275.251 242.125C277.071 242.615 277.946 243.56 277.946 244.855C277.946 246.465 276.616 247.585 274.061 247.585C271.891 247.585 269.616 246.78 269.406 244.155H265.906ZM287.713 244.015H288.553L289.848 237.47V230.47H286.418V237.47L287.713 244.015ZM286.208 250H290.058V246.15H286.208V250ZM297.864 244.015H298.704L299.999 237.47V230.47H296.569V237.47L297.864 244.015ZM296.359 250H300.209V246.15H296.359V250Z" fill="#0F1C51"/>
</svg>
